PathFileType	4	(X/Y/Z)	Static_1_OpenSim.trc																																																																																																																																								
DataRate	CameraRate	NumFrames	NumMarkers	Units	OrigDataRate	OrigDataStartFrame	OrigNumFrames																																																																																																																																				
100	100	4	46	mm	100	140	559																																																																																																																																				
Frame#	Time	R.Acromium			L.Acromium			Sternum			R.Bicep			L.Bicep			R.Elbow			L.Elbow			R.Wrist.Med			R.Wrist.Lat			L.Wrist.Med			L.Wrist.Lat			R.ASIS			R.PSIS			S2			L.PSIS			L.ASIS			R.TH1			R.TH2			R.TH3			R.Knee			R.SH1			R.SH2			R.SH3			R.SH4			R.Ankle			R.Heel			R.MT5			R.MT1			R.Toe.Tip			L.TH1			L.TH2			L.TH3			L.TH4			L.Knee			L.SH1			L.SH2			L.SH3			L.Ankle			L.Heel			L.MT5			L.MT1			L.Toe.Tip			R.MKnee			R.MAnkle			L.MKnee			L.MAnkle		
		X1	Y1	Z1	X2	Y2	Z2	X3	Y3	Z3	X4	Y4	Z4	X5	Y5	Z5	X6	Y6	Z6	X7	Y7	Z7	X8	Y8	Z8	X9	Y9	Z9	X10	Y10	Z10	X11	Y11	Z11	X12	Y12	Z12	X13	Y13	Z13	X14	Y14	Z14	X15	Y15	Z15	X16	Y16	Z16	X17	Y17	Z17	X18	Y18	Z18	X19	Y19	Z19	X20	Y20	Z20	X21	Y21	Z21	X22	Y22	Z22	X23	Y23	Z23	X24	Y24	Z24	X25	Y25	Z25	X26	Y26	Z26	X27	Y27	Z27	X28	Y28	Z28	X29	Y29	Z29	X30	Y30	Z30	X31	Y31	Z31	X32	Y32	Z32	X33	Y33	Z33	X34	Y34	Z34	X35	Y35	Z35	X36	Y36	Z36	X37	Y37	Z37	X38	Y38	Z38	X39	Y39	Z39	X40	Y40	Z40	X41	Y41	Z41	X42	Y42	Z42	X43	Y43	Z43	X44	Y44	Z44	X45	Y45	Z45	X46	Y46	Z46
																																																																																																																																											
140	1.39	936.6562	1483.9334	-322.9665	909.09	1485.5601	-753.9064	1034.891	1305.8283	-541.7165	951.4707	1262.7882	-295.1128	928.2137	1263.1361	-782.9056	897.8353	1138.0155	-251.5409	876.8311	1143.5603	-820.123	1026.2152	906.3256	-272.8578	974.7105	895.5062	-234.3396	1000.3356	914.8787	-804.9409	952.0552	907.9644	-845.9485	1001.3961	1015.5313	-426.0883	808.4661	1048.5885	-480.8116	797.0788	1037.8164	-536.0229	799.7814	1046.4845	-606.2654	985.5693	1013.9661	-677.2442	970.381	766.9307	-342.988	888.1752	767.0984	-338.5418	888.017	656.8982	-344.0265	917.5924	523.1268	-359.8518	884.7219	408.5901	-329.1149	883.8521	295.7194	-326.0276	808.8444	410.2349	-361.6953	806.9757	297.043	-352.0801	858.7548	92.0152	-349.3131	809.2288	56.0218	-423.771	952.179	32.767	-297.8293	1013.433	37.733	-392.1989	1050.4646	47.7613	-328.4026	939.5439	774.8158	-749.1832	931.3946	667.6223	-749.858	855.0059	778.0217	-742.8937	851.6433	668.1732	-735.7844	885.3536	528.5632	-727.5915	872.5507	419.6322	-756.9244	791.4438	422.5447	-743.8947	790.6484	312.4754	-742.4688	839.0215	92.7759	-737.7775	785.2078	52.4532	-668.1	926.7333	32.3705	-791.9712	990.5659	36.5697	-696.5471	1030.8809	45.9635	-765.4051	920.7706	503.2129	-470.8904	895.5443	99.887	-434.273	904.7897	503.0877	-619.1708	873.6793	105.3677	-654.5995
141	1.4	936.6663	1483.9305	-322.9924	908.9909	1485.5948	-753.8433	1034.8721	1305.8389	-541.7305	951.4537	1262.7771	-295.0694	928.1598	1263.2082	-782.9918	897.8348	1137.8879	-251.6215	876.8365	1143.6554	-820.2492	1026.2252	906.3134	-272.9091	974.7437	895.5059	-234.3658	1000.3476	915.003	-805.1866	952.0594	908.1332	-846.1933	1001.3201	1015.5196	-426.067	808.4269	1048.5772	-480.8383	797.0195	1037.8131	-536.0618	799.7062	1046.4718	-606.3021	985.4813	1013.9636	-677.2477	970.3586	767.0369	-343.4052	888.1163	767.106	-338.554	888.0402	656.8709	-344.0597	917.5319	523.0812	-359.8796	884.6686	408.5919	-329.1873	883.8331	295.7187	-326.0628	808.8647	410.2295	-361.691	806.9773	297.0183	-352.0385	858.7559	92.017	-349.3115	809.1888	56.0052	-423.8018	952.1567	32.7854	-297.8095	1013.4482	37.7243	-392.2375	1050.46	47.7686	-328.4015	939.5149	774.8249	-749.3366	931.3284	667.5891	-749.8876	854.9554	778.0107	-742.9821	851.6164	668.1645	-735.8142	885.3326	528.5698	-727.5933	872.1569	419.6314	-756.5665	791.4244	422.5496	-743.9279	790.635	312.4619	-742.4772	839.0251	92.7837	-737.7757	785.2189	52.4513	-668.1127	926.7395	32.3615	-791.9798	990.5844	36.5726	-696.5419	1030.9081	45.9945	-765.4203	920.7397	503.2014	-470.8793	895.4977	99.8648	-434.2828	904.7511	503.0709	-619.1586	873.6367	105.3814	-654.631
142	1.41	936.6557	1483.8795	-322.9195	908.8981	1485.6829	-753.7551	1034.8663	1305.8512	-541.7293	951.5137	1262.7682	-295.1193	928.134	1263.3165	-783.1169	897.8455	1137.9038	-251.5376	876.873	1143.7527	-820.4042	1026.2632	906.2736	-272.9293	974.7954	895.47	-234.4007	1000.423	915.1202	-805.411	952.1296	908.2627	-846.4326	1001.2722	1015.5105	-426.1063	808.3809	1048.568	-480.8466	796.9504	1037.8192	-536.0395	799.6464	1046.5203	-606.2899	985.472	1014.0278	-677.2567	970.3182	766.9605	-343.0251	888.0725	767.1157	-338.5368	887.9393	656.9131	-344.0204	917.4942	523.0922	-359.8784	884.6481	408.5515	-329.1632	883.8279	295.7185	-326.0529	808.8127	410.2312	-361.7235	806.9747	296.9944	-352.1367	858.729	92.0178	-349.3242	809.2188	56.0032	-423.822	952.1949	32.7947	-297.8338	1013.4594	37.7226	-392.24	1050.4612	47.7698	-328.4118	939.4376	774.8014	-749.373	930.9191	667.3707	-751.881	854.9237	777.9701	-742.9255	851.6094	668.1269	-735.7961	885.3328	528.5889	-727.5913	872.1557	419.6531	-756.5754	791.3746	422.5408	-743.9672	790.649	312.4445	-742.4843	839.0893	92.7839	-737.7592	785.2248	52.4262	-668.1135	926.7789	32.3803	-791.968	990.5886	36.5469	-696.5823	1030.9231	45.9776	-765.4381	920.7098	503.2052	-470.8995	895.5025	99.8411	-434.282	904.7536	503.0496	-619.1938	873.665	105.3598	-654.6149
143	1.42	936.6296	1483.8722	-322.7992	908.7454	1485.7754	-753.7772	1034.894	1305.8484	-541.7258	951.521	1262.7274	-295.0557	928.1378	1263.4006	-783.1205	897.8857	1137.8851	-251.5443	876.8868	1143.8306	-820.5329	1026.3592	906.2866	-272.9298	974.9062	895.4487	-234.3971	1000.5539	915.2674	-805.567	952.5974	908.4073	-846.8236	1001.2588	1015.503	-426.0531	808.3123	1048.5902	-480.85	796.8573	1037.8518	-536.0623	799.6231	1046.5045	-606.3715	985.402	1013.9837	-677.238	970.2968	766.9226	-343.063	887.9948	767.1223	-338.5422	887.9202	656.8837	-344.0594	917.4643	523.1141	-359.9102	884.6403	408.5564	-329.2123	883.8274	295.7078	-326.0708	808.7939	410.2697	-361.674	806.9106	297.0138	-352.1247	858.7658	92.0142	-349.3522	809.2175	55.9827	-423.8217	952.2274	32.7889	-297.8497	1013.4499	37.7278	-392.236	1050.4606	47.7819	-328.3979	939.4216	774.809	-749.4755	930.918	667.3836	-751.8752	854.9274	777.9671	-742.9553	851.5566	668.1719	-735.8172	885.2826	528.5501	-727.6097	872.5059	419.6187	-756.9547	791.3439	422.5564	-743.9445	790.5823	312.4366	-742.5263	839.0552	92.7627	-737.7675	785.2284	52.4431	-668.1201	926.7896	32.3744	-791.976	990.6834	36.4203	-696.4486	1030.9187	45.9961	-765.4039	920.7274	503.159	-470.9059	895.5917	99.8746	-434.2778	904.7628	503.0079	-619.2473	873.696	105.32	-654.6192
